<?xml version="1.0" encoding="UTF-8"?>
<svg xmlns="http://www.w3.org/2000/svg" width="401.71" height="179.9" viewBox="0 0 401.71 179.9">
  <title>logistics-logo-white</title>
  <path d="M34.8,52.58a15.83,15.83,0,0,0-11.3-4.1H.1V77.27H22.8c4.9,0,8.9-1.4,11.9-4.1a13.84,13.84,0,0,0,4.5-10.29A14.51,14.51,0,0,0,34.8,52.58Z" transform="translate(0.02)" fill="#0f78ff" fill-rule="evenodd"></path>
  <path d="M38.1,123.57a14.44,14.44,0,0,0,4.6-11.2,15,15,0,0,0-4.7-11.3c-3.1-2.9-7.6-4.4-13.5-4.4H0v31.1h25.2C30.8,127.87,35,126.37,38.1,123.57Z" transform="translate(0.02)" fill="#0f78ff" fill-rule="evenodd"></path>
  <path d="M76.1,25.9C61.4,11.4,42,1.6,20.2,0V30.6h4.2A41.23,41.23,0,0,1,43,34.8a34.32,34.32,0,0,1,13.4,11.4A27.88,27.88,0,0,1,61.3,62a27.22,27.22,0,0,1-4.5,15.69,29.42,29.42,0,0,1-11.7,10.2v1.4a31.16,31.16,0,0,1,15,10.7,28,28,0,0,1,5.5,17.6,30,30,0,0,1-5.3,17.6A34.32,34.32,0,0,1,46,147a47.36,47.36,0,0,1-19.9,4.1h-5.9v28.8a89.61,89.61,0,0,0,55.9-26.2A90.29,90.29,0,0,0,76.17,26l-.09-.09Z" transform="translate(0.02)" fill="#0f78ff" fill-rule="evenodd"></path>
  <path d="M126.14,121.24V110.79h8.28V68.68h-8.28V58.23h32.4a24.2,24.2,0,0,1,10,1.94,15.51,15.51,0,0,1,6.66,5.49,14.89,14.89,0,0,1,2.39,8.5v.9A13.8,13.8,0,0,1,176,82.13a12.83,12.83,0,0,1-3.83,4.23A16.73,16.73,0,0,1,168,88.48V90.1a16,16,0,0,1,4.32,2,12.61,12.61,0,0,1,4,4.28,14.13,14.13,0,0,1,1.67,7.29v.89a16.06,16.06,0,0,1-2.43,9,15.58,15.58,0,0,1-6.71,5.71,23.3,23.3,0,0,1-9.94,2ZM146.3,84.15h11a9.52,9.52,0,0,0,6.07-1.88A6.31,6.31,0,0,0,165.74,77v-.89a6.34,6.34,0,0,0-2.34-5.27A9.65,9.65,0,0,0,157.28,69h-11Zm0,26.29h11.16a9.67,9.67,0,0,0,6.25-1.9,6.45,6.45,0,0,0,2.39-5.39v-.9a6.55,6.55,0,0,0-2.34-5.4,9.69,9.69,0,0,0-6.3-1.89H146.3Z" transform="translate(0.02)" fill="#fff"></path>
  <path d="M187.69,121.24v-63h40.5V69H199.57V84h26.1V94.87h-26.1v15.57h29.16v10.8Z" transform="translate(0.02)" fill="#fff"></path>
  <path d="M233.59,121.24,252,89.47,233.77,58.23h13.5L259.78,81h1.62l12.51-22.77h13.5L269.14,89.47l18.45,31.77h-13.5L261.4,97.93h-1.62l-12.69,23.31Z" transform="translate(0.02)" fill="#fff"></path>
  <path d="M317.29,122.5q-11.7,0-18.54-6.53t-6.84-18.68V82.18q0-12.17,6.84-18.68T317.29,57q11.61,0,18,6.34t6.34,17.41v.54H329.9v-.9a13.56,13.56,0,0,0-3.11-9.18q-3.1-3.58-9.5-3.59t-9.89,3.87q-3.61,3.86-3.61,10.51V97.48q0,6.57,3.61,10.48t9.89,3.92q6.39,0,9.5-3.65a13.6,13.6,0,0,0,3.11-9.13V97.48h11.69v1.26q0,11.07-6.34,17.41T317.29,122.5Z" transform="translate(0.02)" fill="#fff"></path>
  <path d="M375.79,122.5q-11.88,0-18.9-6.53t-7-18.68V82.18q0-12.17,7-18.68t18.9-6.5q11.88,0,18.9,6.52t7,18.68V97.29q0,12.17-7,18.68T375.79,122.5Zm0-10.62q6.66,0,10.35-3.88t3.69-10.34V81.81q0-6.48-3.69-10.34T375.79,67.6q-6.57,0-10.3,3.87t-3.74,10.34V97.66q0,6.48,3.74,10.34T375.79,111.88Z" transform="translate(0.02)" fill="#fff"></path>
</svg>
