<?xml version="1.0" encoding="UTF-8"?>
<svg xmlns="http://www.w3.org/2000/svg" width="102.49" height="179.6" viewBox="0 0 102.49 179.6">
  <title>logistics-favicon</title>
  <path d="M34.72,52q-4.27-4.12-11.34-4.12H0v28.8H22.69q7.41,0,11.86-4.12A13.51,13.51,0,0,0,39,62.21,13.5,13.5,0,0,0,34.72,52Z" transform="translate(-0.01 0.01)" fill="#0f78ff" fill-rule="evenodd"></path>
  <path d="M76.06,25.84C61.34,11.4,42,1.58,20.18,0V30.48h4.2A41.21,41.21,0,0,1,43,34.68,33.69,33.69,0,0,1,56.34,46.11a27.61,27.61,0,0,1,4.87,15.8,27.39,27.39,0,0,1-4.45,15.72A29.25,29.25,0,0,1,45.07,87.8v1.35a31.28,31.28,0,0,1,15,10.67,28.13,28.13,0,0,1,5.55,17.56A30,30,0,0,1,60.33,135,34.24,34.24,0,0,1,46,146.71a47.24,47.24,0,0,1-19.91,4.12H20.21v28.76a89.59,89.59,0,0,0,55.88-26.16A89.7,89.7,0,0,0,102.5,89.64,90,90,0,0,0,76.06,25.84Z" transform="translate(-0.01 0.01)" fill="#0f78ff" fill-rule="evenodd"></path>
  <path d="M38.09,123A15.87,15.87,0,0,0,38,100.56h0q-4.71-4.38-13.45-4.37H0v31.1H25.22Q33.49,127.26,38.09,123Z" transform="translate(-0.01 0.01)" fill="#0f78ff" fill-rule="evenodd"></path>
</svg>
